<svg xmlns="http://www.w3.org/2000/svg" viewBox="0 0 220.46 168.24"><defs><style>.cls-1,.cls-11,.cls-12{fill:#fff;}.cls-1{stroke:#231f20;stroke-width:4px;}.cls-1,.cls-10,.cls-3{stroke-miterlimit:10;}.cls-2{fill:#ac8635;}.cls-10,.cls-3{fill:none;}.cls-3{stroke:#ac8635;stroke-width:2px;}.cls-4{fill:#6f4339;}.cls-5{fill:#8f6351;}.cls-6{fill:#59302e;}.cls-7{fill:#f1b887;}.cls-8{fill:#c9985f;}.cls-9{fill:#b47f51;}.cls-10{stroke:#fff;stroke-width:0.5px;}.cls-11{font-size:3.98px;font-family:CourierNewPSMT, Courier New;}.cls-12{font-size:21.77px;font-family:Konichiwa-Regular, Konichiwa;}</style></defs><title>Asset 4</title><g id="Layer_2" data-name="Layer 2"><g id="Layer_1-2" data-name="Layer 1"><path class="cls-1" d="M102.27,109c2.61,0,5.26.07,8,.07a437.88,437.88,0,0,0,45.49-2.75"/><path class="cls-2" d="M70.4,15c-1.87-3.5,4.82-8.8,8.77-9.94s15.31-1,16.08,1.17c1,2.83-5.1,8.37-10.91,9.85C80.45,17.05,71.61,17.25,70.4,15Z"/><path class="cls-2" d="M54,22.65a4,4,0,0,1-1-1.82A6.21,6.21,0,0,0,54,22.65Z"/><path class="cls-2" d="M78,27.49c-1.15,2.29-10,2.32-13.91,1.42A19.47,19.47,0,0,1,54,22.65a6.21,6.21,0,0,1-1-1.82,2.46,2.46,0,0,1-.11-.45c-.7-3.16.43-7.95,1.94-10.37C57,6.52,65.54-1,67.53.1,70.2,1.51,69.36,9.73,66,14.72a21.79,21.79,0,0,1-2,2.52,23,23,0,0,1,5,.53C73,18.81,79.76,24,78,27.49Z"/><path class="cls-2" d="M64.64,33.67c-.49,2.51-9,4.91-13,5.09a19.47,19.47,0,0,1-11.39-3.34,6.34,6.34,0,0,1-1.46-1.48,2.73,2.73,0,0,1-.22-.41C37,30.68,36.84,25.76,37.64,23c1.16-3.94,7.41-13.44,9.61-12.95,3,.65,4.34,8.79,2.47,14.49a21,21,0,0,1-1.26,3,22.9,22.9,0,0,1,4.91-.81C57.48,26.65,65.41,29.78,64.64,33.67Z"/><path class="cls-2" d="M51.68,41.61c.71,2.47-6.79,7.7-10.5,9.23a19.46,19.46,0,0,1-11.84.75,6.09,6.09,0,0,1-1.88-.89,2.67,2.67,0,0,1-.35-.31c-2.4-2.16-4.26-6.72-4.44-9.57-.31-4.93,4.41-16.88,6.64-17.18,3-.4,4.56,8.41,4.7,14.5a39.26,39.26,0,0,1-.37,4.71A23.24,23.24,0,0,1,39.34,40C43.36,39.25,50.94,39,51.68,41.61Z"/><path class="cls-2" d="M42.68,54.85c1.23,2.25-5,9-8.25,11.29A19.39,19.39,0,0,1,23,69.44,6.33,6.33,0,0,1,21,69a4,4,0,0,1-.41-.22c-2.81-1.6-5.61-5.64-6.4-8.38-1.38-4.75.63-17.44,2.75-18.22,2.83-1,6.28,7.22,7.73,13.13A40.41,40.41,0,0,1,25.34,60a22.71,22.71,0,0,1,4.95-4C34,54.35,41.39,52.48,42.68,54.85Z"/><path class="cls-2" d="M35.64,71c1.68,1.93-2.92,9.84-5.64,12.79a19.35,19.35,0,0,1-10.42,5.67,6,6,0,0,1-2.08,0,2.13,2.13,0,0,1-.45-.13c-3.09-1-6.69-4.3-8-6.81C6.64,78.12,5.88,65.3,7.78,64.08c2.55-1.62,7.68,5.71,10.37,11.17A31.64,31.64,0,0,1,19.84,79a17.08,17.08,0,0,1,3.94-4.21C27.1,72.32,33.87,68.92,35.64,71Z"/><path class="cls-2" d="M33.41,86.8c2,1.59-1.06,10.21-3.19,13.62a19.53,19.53,0,0,1-9.2,7.49,6.57,6.57,0,0,1-2.05.36,2.31,2.31,0,0,1-.46,0c-3.21-.37-7.37-3-9.17-5.21-3.12-3.84-6.22-16.3-4.58-17.84C7,83.1,13.36,89.36,17,94.24a31.61,31.61,0,0,1,2.34,3.32,17.13,17.13,0,0,1,3.1-4.86C25.27,89.71,31.3,85.13,33.41,86.8Z"/><path class="cls-2" d="M34.38,103.74c2.29,1.15,1,10.22-.36,14a19.49,19.49,0,0,1-7.49,9.21,6.36,6.36,0,0,1-1.93.77,3.8,3.8,0,0,1-.46,0c-3.22.29-7.83-1.44-10-3.24C10.27,121.39,4.69,109.82,6,108c1.74-2.47,9.27,2.36,13.84,6.39a30.59,30.59,0,0,1,3,2.78,17,17,0,0,1,2.05-5.39C27,108.25,32,102.53,34.38,103.74Z"/><path class="cls-3" d="M70.4,15C38.12,27.52,20.61,51.47,17.69,84.76c-1.23,14,1.94,29.81,8.79,44.1"/><path class="cls-2" d="M148.42,15c1.86-3.5-4.82-8.8-8.77-9.94s-15.31-1-16.08,1.17c-1,2.83,5.1,8.37,10.91,9.85C138.37,17.05,147.21,17.25,148.42,15Z"/><path class="cls-2" d="M164.83,22.65a4,4,0,0,0,1-1.82A6.21,6.21,0,0,1,164.83,22.65Z"/><path class="cls-2" d="M140.84,27.49c1.15,2.29,10,2.32,13.91,1.42a19.47,19.47,0,0,0,10.08-6.26,6.21,6.21,0,0,0,1-1.82,3.69,3.69,0,0,0,.11-.45A16.56,16.56,0,0,0,164,10C161.84,6.52,153.28-1,151.29.1c-2.67,1.41-1.83,9.63,1.49,14.62a21.79,21.79,0,0,0,2,2.52,23,23,0,0,0-4.95.53C145.87,18.81,139.06,24,140.84,27.49Z"/><path class="cls-2" d="M154.17,33.67c.5,2.51,9,4.91,13,5.09a19.42,19.42,0,0,0,11.38-3.34A6,6,0,0,0,180,33.94a2.82,2.82,0,0,0,.23-.41c1.52-2.85,1.71-7.77.9-10.51-1.15-3.94-7.4-13.44-9.6-12.95-2.95.65-4.34,8.79-2.48,14.49a22.43,22.43,0,0,0,1.27,3,22.88,22.88,0,0,0-4.92-.81C161.34,26.65,153.4,29.78,154.17,33.67Z"/><path class="cls-2" d="M167.13,41.61c-.71,2.47,6.8,7.7,10.51,9.23a19.45,19.45,0,0,0,11.84.75,6.09,6.09,0,0,0,1.88-.89,2.67,2.67,0,0,0,.35-.31c2.4-2.16,4.26-6.72,4.44-9.57.3-4.93-4.41-16.88-6.65-17.18-3-.4-4.56,8.41-4.69,14.5a39.26,39.26,0,0,0,.37,4.71,23.24,23.24,0,0,0-5.7-2.81C175.45,39.25,167.88,39,167.13,41.61Z"/><path class="cls-2" d="M176.14,54.85c-1.23,2.25,5,9,8.25,11.29a19.39,19.39,0,0,0,11.4,3.3,6.27,6.27,0,0,0,2-.46,3.14,3.14,0,0,0,.41-.22c2.81-1.6,5.62-5.64,6.41-8.38,1.37-4.75-.64-17.44-2.75-18.22-2.84-1-6.28,7.22-7.74,13.13a40.33,40.33,0,0,0-.66,4.69,23,23,0,0,0-4.95-4C184.77,54.35,177.43,52.48,176.14,54.85Z"/><path class="cls-2" d="M183.17,71c-1.68,1.93,2.93,9.84,5.64,12.79a19.41,19.41,0,0,0,10.43,5.67,6,6,0,0,0,2.08,0,2.13,2.13,0,0,0,.45-.13c3.08-1,6.69-4.3,8-6.81,2.36-4.34,3.12-17.16,1.22-18.38-2.55-1.62-7.68,5.71-10.37,11.17A31.64,31.64,0,0,0,199,79,16.91,16.91,0,0,0,195,74.74C191.72,72.32,185,68.92,183.17,71Z"/><path class="cls-2" d="M185.4,86.8c-2,1.59,1.07,10.21,3.19,13.62a19.55,19.55,0,0,0,9.21,7.49,6.57,6.57,0,0,0,2,.36,2.31,2.31,0,0,0,.46,0c3.21-.37,7.37-3,9.17-5.21,3.12-3.84,6.22-16.3,4.57-17.84-2.2-2.07-8.59,4.19-12.24,9.07a31.61,31.61,0,0,0-2.34,3.32,17.13,17.13,0,0,0-3.11-4.86C193.55,89.71,187.52,85.13,185.4,86.8Z"/><path class="cls-2" d="M184.44,103.74c-2.29,1.15-1,10.22.36,14a19.47,19.47,0,0,0,7.48,9.21,6.51,6.51,0,0,0,1.94.77,3.8,3.8,0,0,0,.46,0c3.22.29,7.83-1.44,10-3.24,3.83-3.12,9.4-14.69,8.11-16.54-1.74-2.47-9.27,2.36-13.84,6.39a32,32,0,0,0-3,2.78,17,17,0,0,0-2.05-5.39C191.83,108.25,186.85,102.53,184.44,103.74Z"/><path class="cls-3" d="M148.42,15c32.28,12.54,49.78,36.49,52.71,69.78,1.22,14-1.94,29.81-8.79,44.1"/><polygon class="cls-4" points="25.84 147.58 0 147.58 15.96 129.62 0.41 111.32 53.52 111.32 32.49 147.58 25.84 147.58"/><polygon class="cls-5" points="15.96 129.62 0 147.58 16.9 129.68 15.96 129.62"/><polygon class="cls-6" points="15.96 129.6 0.41 111.32 16.9 129.66 15.96 129.6"/><polygon class="cls-6" points="54.15 111.88 54.15 130.87 25.84 133.91 25.84 130.48 54.15 111.88"/><polygon class="cls-4" points="194.62 147.58 220.47 147.58 204.5 129.62 220.06 111.32 166.95 111.32 187.98 147.58 194.62 147.58"/><polygon class="cls-6" points="220.06 111.32 203.32 129.57 204.5 129.62 220.06 111.32"/><polygon class="cls-5" points="220.47 147.58 204.5 129.62 203.32 129.57 220.47 147.58"/><polygon class="cls-6" points="166.32 111.88 166.32 130.87 194.62 133.91 194.62 130.48 166.32 111.88"/><path class="cls-7" d="M63.38,87.37s1.09,2.85,11.32,8.56a150.54,150.54,0,0,0,16.77,8.25l4.3-24.36A110.75,110.75,0,0,0,109.9,91a193.38,193.38,0,0,0,18,9.91l3-21.68a112.57,112.57,0,0,0,17.22,14.18c9.52,6.21,13.71,7.71,13.71,7.71s-31.39,13.5-32.25,13.72-57-4.72-57-4.72Z"/><path class="cls-8" d="M174.29,91.29c6.14,4.74,9.43,11.72,7.63,17.39-1,3.25-4.52,8.58-20.64,13.29-38.57,11.28-109.94,7.54-121.56-7.69-5.41-7.07,3.71-14.51,8.37-18.31a58.44,58.44,0,0,1,15.29-8.6c4.92,7,11.37,13.56,16.79,15.45,1.71.59,5,1.74,5.6-.86.69-3.27-3.24-11.22-8.56-18.91a150.12,150.12,0,0,1,18.56-3.23c5.07,8.32,12.89,17,19.25,19.19,1.7.59,5,1.75,5.6-.86.71-3.34-3.43-11.57-8.93-19.43a185.22,185.22,0,0,1,19.23.46h0C136,87.69,144,96.74,150.58,99c1.69.59,5,1.75,5.59-.86.63-2.92-2.48-9.62-7-16.52C159.87,83.75,168.77,87,174.29,91.29Z"/><path class="cls-9" d="M182.43,104.72c-.43-3.86-1.52-5.47-1.52-5.47s-1.58,10-14.12,14.25-39,8.74-60.21,6.65c-59.68-5.9-64.83-18.39-64.83-18.39S27.61,115,54.4,122.4c24.29,6.7,43,7.6,71.25,5.25s44.68-8,51.43-13S182.43,104.72,182.43,104.72Z"/><rect class="cls-4" x="24.94" y="129.36" width="170.78" height="38.88"/><rect class="cls-10" x="26.06" y="130.8" width="168.53" height="36.01"/><text class="cls-11" transform="translate(158.22 162.91) scale(1.09 1)">by PNDBR co.</text><text class="cls-11" transform="translate(117.13 160.34) scale(1.09 1)">Est. 2021</text><text class="cls-12" transform="translate(67.31 154.17) scale(1.22 1)">le Bakery</text></g></g></svg>